<?xml version="1.0" standalone="no"?>
<!DOCTYPE svg PUBLIC "-//W3C//DTD SVG 20010904//EN"
 "http://www.w3.org/TR/2001/REC-SVG-20010904/DTD/svg10.dtd">
<svg version="1.0" xmlns="http://www.w3.org/2000/svg"
 width="400.000000pt" height="329.000000pt" viewBox="0 0 400.000000 329.000000"
 preserveAspectRatio="xMidYMid meet">
<metadata>
Created by potrace 1.16, written by Peter Selinger 2001-2019
</metadata>
<g transform="translate(0.000000,329.000000) scale(0.100000,-0.100000)"
fill="#000000" stroke="none">
<path d="M1330 2859 c0 -467 1 -459 -54 -459 -14 0 -26 -4 -26 -10 0 -6 -40
-10 -100 -10 -60 0 -100 4 -100 10 0 6 -13 10 -30 10 -16 0 -30 5 -30 10 0 6
-18 10 -40 10 l-40 0 0 -50 c0 -27 -4 -50 -10 -50 -5 0 -10 -7 -10 -15 0 -9
-11 -27 -25 -41 -36 -36 -113 -37 -149 0 -15 14 -26 32 -26 41 0 8 -4 15 -10
15 -5 0 -10 14 -10 30 0 17 -4 30 -10 30 -5 0 -10 9 -10 20 0 16 -7 20 -30 20
-16 0 -30 -4 -30 -10 0 -5 -13 -10 -30 -10 -16 0 -30 -4 -30 -10 0 -5 -6 -10
-14 -10 -18 0 -186 -164 -186 -182 0 -8 -9 -20 -20 -28 -11 -8 -20 -22 -20
-32 0 -10 -4 -18 -10 -18 -5 0 -10 -9 -10 -20 0 -11 -4 -20 -10 -20 -5 0 -10
-12 -10 -26 0 -29 -31 -67 -38 -46 -6 19 -42 15 -42 -6 0 -10 -9 -24 -20 -32
-11 -8 -20 -22 -20 -32 0 -10 -4 -18 -10 -18 -5 0 -10 -8 -10 -18 0 -10 -9
-24 -20 -32 -11 -8 -20 -22 -20 -32 0 -10 -4 -18 -10 -18 -5 0 -10 -7 -10 -16
0 -9 -9 -25 -21 -35 -26 -22 -41 -129 -18 -129 8 0 21 -9 29 -20 8 -11 22 -20
32 -20 10 0 18 -4 18 -10 0 -5 9 -10 20 -10 11 0 20 -4 20 -10 0 -5 -4 -10
-10 -10 -5 0 -10 -16 -10 -35 0 -76 111 -139 150 -85 8 12 26 20 42 20 28 0
28 0 28 -70 0 -40 -4 -70 -10 -70 -5 0 -10 -22 -10 -50 0 -27 -4 -50 -10 -50
-16 0 -12 -89 4 -106 8 -8 26 -14 40 -14 14 0 26 -4 26 -10 0 -5 13 -10 29
-10 17 0 33 -5 36 -10 3 -6 20 -10 36 -10 59 0 59 -1 59 -320 l0 -291 35 -34
c32 -32 39 -35 95 -35 51 0 65 4 85 25 14 13 25 31 25 40 0 23 8 19 50 -25 37
-38 41 -40 100 -40 51 0 65 4 85 25 14 13 25 31 25 40 0 8 5 15 10 15 6 0 10
102 10 286 0 309 1 314 54 314 14 0 26 5 26 10 0 6 18 10 40 10 22 0 40 5 40
10 0 6 9 10 20 10 11 0 20 5 20 10 0 6 9 10 20 10 17 0 20 7 20 50 0 28 -4 50
-10 50 -5 0 -10 23 -10 50 0 28 -4 50 -10 50 -5 0 -10 22 -10 49 0 28 -4 53
-10 56 -5 3 -10 31 -10 61 0 30 -4 54 -10 54 -5 0 -10 23 -10 50 0 28 -4 50
-10 50 -5 0 -10 23 -10 50 0 28 -4 50 -10 50 -5 0 -10 23 -10 50 0 28 -4 50
-10 50 -5 0 -10 22 -10 49 0 28 -4 53 -10 56 -5 3 -10 31 -10 61 0 30 -4 54
-10 54 -5 0 -10 23 -10 50 0 28 -4 50 -10 50 -5 0 -10 5 -10 10 0 6 24 10 54
10 30 0 58 5 61 10 3 6 28 10 56 10 27 0 49 5 49 10 0 6 5 10 10 10 6 0 10
-130 10 -370 l0 -370 1260 0 1260 0 0 905 0 905 -1260 0 -1260 0 0 -431z
m2440 -409 l0 -790 -1180 0 -1180 0 0 286 c0 299 2 314 44 314 9 0 16 5 16 10
0 6 9 10 20 10 11 0 20 5 20 10 0 6 8 10 18 10 10 0 24 9 32 20 8 11 20 20 27
20 7 0 51 38 98 85 69 69 85 90 85 115 0 21 11 42 40 71 42 44 49 71 26 95
-25 24 -56 16 -96 -26 -29 -30 -46 -40 -70 -40 -24 0 -41 -10 -70 -40 -21 -22
-44 -40 -50 -40 -6 0 -29 -18 -50 -40 -21 -22 -46 -40 -54 -40 -9 0 -16 -4
-16 -10 0 -5 -4 -10 -10 -10 -6 0 -10 137 -10 390 l0 390 1180 0 1180 0 0
-790z m-3370 -650 c8 -11 22 -20 32 -20 10 0 18 -4 18 -10 0 -5 -4 -10 -10
-10 -5 0 -10 -9 -10 -20 0 -11 -4 -20 -10 -20 -5 0 -10 -8 -10 -18 0 -10 -9
-24 -20 -32 -11 -8 -20 -22 -20 -32 0 -10 -4 -18 -10 -18 -5 0 -10 -9 -10 -20
0 -11 -4 -20 -10 -20 -5 0 -10 -9 -10 -20 0 -11 -4 -20 -10 -20 -5 0 -10 18
-10 40 0 22 5 40 10 40 6 0 10 23 10 50 0 28 5 50 10 50 6 0 10 16 10 35 0 32
15 64 30 65 3 0 12 -9 20 -20z"/>
<path d="M2570 1720 l0 -40 110 0 110 0 0 40 0 40 -110 0 -110 0 0 -40z"/>
<path d="M2810 1720 l0 -40 120 0 120 0 0 40 0 40 -120 0 -120 0 0 -40z"/>
<path d="M690 2950 c0 -5 -7 -10 -15 -10 -26 0 -125 -107 -125 -135 0 -14 -4
-25 -10 -25 -6 0 -10 -33 -10 -80 0 -47 4 -80 10 -80 6 0 10 -9 10 -20 0 -11
5 -20 10 -20 6 0 10 -7 10 -15 0 -20 65 -85 85 -85 8 0 15 -4 15 -10 0 -5 14
-10 30 -10 17 0 30 -4 30 -10 0 -5 23 -10 50 -10 28 0 50 5 50 10 0 6 18 10
40 10 22 0 40 5 40 10 0 6 7 10 15 10 20 0 85 65 85 85 0 8 5 15 10 15 6 0 10
9 10 20 0 11 5 20 10 20 6 0 10 33 10 80 0 47 -4 80 -10 80 -5 0 -10 11 -10
25 0 28 -99 135 -125 135 -8 0 -15 5 -15 10 0 6 -40 10 -100 10 -60 0 -100 -4
-100 -10z"/>
<path d="M1570 1150 c0 -5 -13 -10 -30 -10 -16 0 -30 -4 -30 -10 0 -5 -7 -10
-15 -10 -19 0 -65 -44 -65 -62 0 -8 -9 -20 -20 -28 -14 -10 -20 -26 -20 -52 0
-20 -4 -40 -10 -43 -5 -3 -10 -17 -10 -31 0 -13 5 -24 10 -24 6 0 10 -18 10
-40 0 -22 5 -40 10 -40 6 0 10 -7 10 -15 0 -20 85 -105 105 -105 8 0 15 -4 15
-10 0 -5 18 -10 39 -10 22 0 43 -4 46 -10 4 -6 -40 -10 -125 -10 l-132 0 -28
-30 c-15 -16 -33 -30 -40 -30 -16 0 -80 -70 -80 -87 0 -7 -4 -13 -10 -13 -5 0
-10 -9 -10 -20 0 -11 -4 -20 -10 -20 -5 0 -10 -13 -10 -30 0 -16 -4 -30 -10
-30 -5 0 -10 -22 -10 -50 0 -27 5 -50 10 -50 6 0 10 -9 10 -20 0 -11 3 -20 8
-20 4 0 13 -14 20 -30 8 -17 21 -30 31 -30 9 0 23 -9 31 -20 8 -11 22 -20 32
-20 14 0 18 -8 18 -36 0 -42 19 -64 54 -64 14 0 26 -4 26 -10 0 -6 87 -10 240
-10 153 0 240 4 240 10 0 6 12 10 26 10 35 0 54 22 54 64 0 29 4 36 20 36 11
0 20 5 20 10 0 6 7 10 15 10 20 0 85 65 85 85 0 8 9 15 20 15 11 0 20 -7 20
-15 0 -20 65 -85 85 -85 8 0 15 -4 15 -10 0 -5 9 -10 20 -10 17 0 20 -7 20
-50 0 -49 1 -50 29 -50 16 0 31 -5 33 -11 5 -15 507 -16 517 -1 3 5 17 12 31
13 22 4 25 9 28 52 3 39 6 47 23 47 10 0 19 5 19 10 0 6 7 10 15 10 20 0 65
45 65 65 0 8 5 15 10 15 6 0 10 9 10 20 0 11 3 20 6 20 10 0 34 -28 34 -40 0
-16 67 -80 85 -80 8 0 15 -4 15 -10 0 -5 9 -10 20 -10 16 0 20 -7 20 -36 0
-37 18 -64 44 -64 8 0 18 -4 21 -10 4 -6 98 -10 251 -10 156 0 244 4 244 10 0
6 9 10 20 10 11 0 20 5 20 10 0 6 9 10 20 10 16 0 20 7 20 36 0 38 18 64 44
64 9 0 16 5 16 10 0 6 7 10 16 10 32 0 47 30 52 105 2 40 1 98 -2 129 -7 53
-11 60 -91 141 l-84 85 -131 0 c-85 0 -129 4 -125 10 3 6 24 10 46 10 21 0 39
5 39 10 0 6 7 10 15 10 20 0 105 85 105 105 0 8 5 15 10 15 6 0 10 40 10 100
0 60 -4 100 -10 100 -5 0 -10 9 -10 20 0 11 -4 20 -10 20 -5 0 -10 7 -10 16 0
19 -24 44 -42 44 -8 0 -20 9 -28 20 -8 12 -26 20 -42 20 -15 0 -28 5 -28 10 0
6 -30 10 -70 10 -40 0 -70 -4 -70 -10 0 -5 -11 -10 -24 -10 -34 0 -136 -100
-136 -134 0 -14 -4 -26 -10 -26 -6 0 -10 -33 -10 -80 0 -47 4 -80 10 -80 6 0
10 -9 10 -20 0 -11 5 -20 10 -20 6 0 10 -7 10 -15 0 -20 65 -85 85 -85 8 0 15
-4 15 -10 0 -5 22 -10 49 -10 28 0 53 -4 56 -10 4 -6 -42 -10 -129 -10 -84 0
-136 -4 -136 -10 0 -5 -7 -10 -15 -10 -20 0 -145 -125 -145 -145 0 -8 -4 -15
-10 -15 -5 0 -10 -9 -10 -20 0 -11 -4 -20 -10 -20 -5 0 -10 -12 -10 -26 0 -14
-4 -23 -10 -19 -5 3 -10 19 -10 36 0 16 -4 29 -10 29 -5 0 -10 8 -10 18 0 10
-9 24 -20 32 -11 8 -20 20 -20 28 0 17 -65 82 -82 82 -8 0 -20 9 -28 20 -13
18 -26 20 -148 20 -86 0 -131 4 -127 10 3 6 24 10 46 10 21 0 39 5 39 10 0 6
7 10 16 10 9 0 40 25 70 56 43 46 54 63 54 90 0 19 5 34 10 34 6 0 10 20 10
44 0 25 -4 48 -10 51 -5 3 -10 19 -10 36 0 16 -4 29 -10 29 -5 0 -10 7 -10 15
0 20 -65 85 -85 85 -8 0 -15 5 -15 10 0 6 -9 10 -20 10 -11 0 -20 5 -20 10 0
6 -33 10 -80 10 -47 0 -80 -4 -80 -10 0 -5 -9 -10 -20 -10 -11 0 -20 -4 -20
-10 0 -5 -7 -10 -15 -10 -20 0 -85 -65 -85 -85 0 -8 -4 -15 -10 -15 -5 0 -10
-13 -10 -30 0 -16 -4 -30 -10 -30 -6 0 -10 -27 -10 -60 0 -33 4 -60 10 -60 6
0 10 -13 10 -28 0 -16 8 -34 20 -42 11 -8 20 -20 20 -28 0 -18 25 -42 44 -42
9 0 16 -4 16 -10 0 -5 9 -10 20 -10 11 0 20 -4 20 -10 0 -5 18 -10 39 -10 22
0 43 -4 46 -10 4 -6 -42 -10 -129 -10 -84 0 -136 -4 -136 -10 0 -5 -6 -10 -14
-10 -19 0 -126 -105 -126 -124 0 -9 -4 -16 -10 -16 -5 0 -10 -9 -10 -20 0 -11
-4 -20 -10 -20 -5 0 -10 -9 -10 -20 0 -13 -7 -20 -20 -20 -15 0 -20 7 -20 28
0 16 -8 34 -20 42 -11 8 -20 20 -20 27 0 19 -106 123 -125 123 -8 0 -15 5 -15
10 0 6 -52 10 -136 10 -87 0 -133 4 -129 10 3 6 25 10 49 10 28 0 49 7 64 20
12 11 26 20 32 20 16 0 60 47 60 65 0 8 5 15 10 15 6 0 10 14 10 30 0 17 5 30
10 30 6 0 10 30 10 70 0 40 -4 70 -10 70 -5 0 -10 9 -10 20 0 11 -4 20 -10 20
-5 0 -10 7 -10 15 0 20 -65 85 -85 85 -8 0 -15 5 -15 10 0 6 -9 10 -20 10 -11
0 -20 5 -20 10 0 6 -30 10 -70 10 -40 0 -70 -4 -70 -10z"/>
</g>
</svg>
